<svg xmlns="http://www.w3.org/2000/svg" viewBox="0 0 32 32" width="32" height="32">
  <!-- Background circle -->
  <circle cx="16" cy="16" r="15" fill="#2563eb" stroke="#1d4ed8" stroke-width="2"/>
  
  <!-- File icon -->
  <path d="M9 7a1 1 0 0 1 1-1h8l4 4v14a1 1 0 0 1-1 1H10a1 1 0 0 1-1-1V7Z" fill="#ffffff" opacity="0.9"/>
  <path d="M18 6v4h4" fill="none" stroke="#2563eb" stroke-width="1.5" stroke-linecap="round"/>
  
  <!-- Compression arrows -->
  <g fill="#2563eb" opacity="0.8">
    <!-- Top arrow pointing down -->
    <path d="M13 12l1.5 2 1.5-2h-1v-1h-1v1z"/>
    <!-- Bottom arrow pointing up -->
    <path d="M13 20l1.5-2 1.5 2h-1v1h-1v-1z"/>
  </g>
  
  <!-- Compression lines -->
  <g stroke="#2563eb" stroke-width="0.8" opacity="0.6">
    <line x1="11" y1="15" x2="17" y2="15"/>
    <line x1="11" y1="17" x2="17" y2="17"/>
  </g>
</svg>